# AST/ASF file generated using VICON BodyLanguage
# -----------------------------------------------
:version 1.10
:name VICON
:units
  mass 1.0
  length 0.45
  angle deg
:documentation
   .ast/.asf automatically generated from VICON data using
   VICON BodyBuilder and BodyLanguage model FoxedUp or BRILLIANT.MOD
:root
   order TX TY TZ RX RY RZ
   axis XYZ
   position 0 0 0  
   orientation 0 0 0 
:bonedata
  begin
     id 1 
     name lhipjoint
     direction 0.54267 -0.795011 0.271047 
     length 2.39899 
     axis 0 0 0  XYZ
  end
  begin
     id 2 
     name lfemur
     direction 0.34202 -0.939693 0  
     length 7.49701  
     axis 0 0 20  XYZ
    dof rx ry rz
    limits (-160.0 20.0)
           (-70.0 70.0)
           (-60.0 70.0)
  end
  begin
     id 3 
     name ltibia
     direction 0.34202 -0.939693 0   
     length 8.1668   
     axis 0 0 20   XYZ
    dof rx
    limits (-10.0 170.0)
  end
  begin
     id 4 
     name lfoot
     direction 0.0736283 -0.202292 0.976554   
     length 2.13544   
     axis -90 7.62852e-016 20   XYZ
    dof rx rz
    limits (-45.0 90.0)
           (-70.0 20.0)
  end
  begin
     id 5 
     name ltoes
     direction 1.53557e-011 -4.22024e-011 1   
     length 1.07411   
     axis -90 7.62852e-016 20   XYZ
    dof rx
    limits (-90.0 20.0)
  end
  begin
     id 6 
     name rhipjoint
     direction -0.538061 -0.797813 0.272002   
     length 2.39057  
     axis 0 0 0  XYZ 
  end
  begin
     id 7 
     name rfemur
     direction -0.34202 -0.939693 0   
     length 7.50152   
     axis 0 0 -20   XYZ
    dof rx ry rz
    limits (-160.0 20.0)
           (-70.0 70.0)
           (-70.0 60.0)
  end
  begin
     id 8 
     name rtibia
     direction -0.34202 -0.939693 0   
     length 8.05793   
     axis 0 0 -20   XYZ
    dof rx
    limits (-10.0 170.0)
 end
 begin
     id 9 
     name rfoot
     direction -0.0765195 -0.210236 0.974652   
     length 2.28698  
     axis -90 -7.62852e-016 -20   XYZ
    dof rx rz
    limits (-45.0 90.0)
           (-20.0 70.0)
  end
  begin
     id 10 
     name rtoes
     direction -1.53542e-011 -4.21847e-011 1   
     length 1.14762   
     axis -90 -7.62852e-016 -20   XYZ
    dof rx
    limits (-90.0 20.0)
  end
  begin
     id 11 
     name lowerback
     direction -0.0217239 0.996592 -0.0795765   
     length 2.08176   
     axis 0 0 0   XYZ
    dof rx ry rz
    limits (-20.0 45.0)
           (-30.0 30.0)
           (-30.0 30.0)
  end
  begin
     id 12 
     name upperback
     direction -0.00563773 0.999651 -0.0258155   
     length 2.08898   
     axis 0 0 0   XYZ
    dof rx ry rz
    limits (-20.0 45.0)
           (-30.0 30.0)
           (-30.0 30.0)
  end
  begin
     id 13 
     name thorax
     direction 0.0032706 0.999923 0.0119599   
     length 2.0968   
     axis 0 0 0   XYZ
    dof rx ry rz
    limits (-20.0 45.0)
           (-30.0 30.0)
           (-30.0 30.0)
  end
  begin
     id 14 
     name lowerneck
     direction -0.0285886 0.99568 0.0883427   
     length 1.81272   
     axis 0 0 0   XYZ
    dof rx ry rz
    limits (-20.0 45.0)
           (-30.0 30.0)
           (-30.0 30.0)
  end
  begin
     id 15 
     name upperneck
     direction 0.0807535 0.97985 -0.18268   
     length 1.82518   
     axis 0 0 0   XYZ
    dof rx ry rz
    limits (-20.0 45.0)
           (-30.0 30.0)
           (-30.0 30.0)
  end
  begin
     id 16
     name head
     direction 0.0236605 0.997053 -0.0729767  
     length 1.84443  
     axis 0 0 0   XYZ
    dof rx ry rz
    limits (-20.0 45.0)
           (-30.0 30.0)
           (-30.0 30.0)
  end
  begin
     id 17 
     name lclavicle
     direction 0.918986 0.39378 -0.0200683  
     length 3.27822  
     axis 0 0 0   XYZ
    dof ry rz
    limits (-20.0 10.0)
           (0.0 20.0)
  end
  begin
     id 18 
     name lhumerus
     direction 1 -4.4897e-011 2.09544e-027   
     length 5.5568   
     axis 180 -30 -90   XYZ
    dof rx ry rz
    limits (-60.0 90.0)
           (-90.0 90.0)
           (-90.0 90.0)
  end
  begin
     id 19
     name lradius
     direction 1 -4.48957e-011 -1.27696e-026   
     length 3.63979   
     axis 180 -30 -90   XYZ
    dof rx
    limits (-10.0 170.0)
  end
  begin
     id 20
     name lwrist
     direction 1 -4.49001e-011 -1.49001e-026   
     length 1.8199   
     axis 9.0955e-015 90 90   XYZ
    dof ry
    limits (-180.0 0.0)
 end
  begin
     id 21 
     name lhand
     direction 1 -4.48709e-011 -2.9758e-026   
     length 0.569419   
     axis 1.90115e-014 90 90   XYZ
    dof rx rz
    limits (-90.0 90.0)
           (-45.0 45.0)
  end
  begin
     id 22 
     name lfingers
     direction 1 -4.49175e-011 -5.96505e-026   
     length 0.45908   
     axis 3.80223e-014 90 90   XYZ
    dof rx
    limits (0.0 90.0)
  end
  begin
     id 23
     name lthumb
     direction 0.707107 -6.34864e-011 0.707107   
     length 0.65915   
     axis -90 45 -3.84942e-014   XYZ
    dof rx rz
    limits (-45.0 45.0)
           (-45.0 45.0)
  end
  begin
     id 24 
     name rclavicle
     direction -0.911913 0.396426 -0.106115   
     length 3.46301  
     axis 0 0 0   XYZ 
    dof ry rz
    limits (-10.0 20.0)
           (-20.0 0.0)
  end
  begin
     id 25 
     name rhumerus
     direction -1 -4.48965e-011 7.78516e-028  
     length 5.34339   
     axis 180 30 90   XYZ
    dof rx ry rz
    limits (-90.0 60.0)
           (-90.0 90.0)
           (-90.0 90.0)
  end
  begin
     id 26 
     name rradius
     direction -1 -4.48948e-011 -5.79823e-027   
     length 3.65101   
     axis 180 30 90   XYZ
    dof rx
    limits (-10.0 170.0)
  end
  begin
     id 27 
     name rwrist
     direction -1 -4.48995e-011 -1.48996e-026   
     length 1.8255   
     axis 9.0955e-015 -90 -90   XYZ
    dof ry
    limits (-180.0 0.0)
  end
  begin
     id 28
     name rhand
     direction -1 -4.48957e-011 -2.97937e-026   
     length 0.694249   
     axis 1.90115e-014 -90 -90   XYZ
    dof rx rz
    limits (-90.0 90.0)
           (-45.0 45.0)
  end
  begin
     id 29
     name rfingers
     direction -1 -4.4898e-011 -5.95943e-026   
     length 0.559721   
     axis 3.80223e-014 -90 -90   XYZ
    dof rx
    limits (0.0 90.0)
  end
  begin
     id 30
     name rthumb
     direction -0.707107 -6.34969e-011 0.707107   
     length 0.803651   
     axis -90 -45 3.84942e-014   XYZ
    dof rx rz
    limits (-45.0 45.0)
           (-45.0 45.0)
  end
:hierarchy
  begin
    root lhipjoint rhipjoint lowerback
    lhipjoint lfemur
    lfemur ltibia
    ltibia lfoot
    lfoot ltoes
    rhipjoint rfemur
    rfemur rtibia
    rtibia rfoot
    rfoot rtoes
    lowerback upperback
    upperback thorax
    thorax lowerneck lclavicle rclavicle
    lowerneck upperneck
    upperneck head
    lclavicle lhumerus
    lhumerus lradius
    lradius lwrist
    lwrist lhand lthumb
    lhand lfingers
    rclavicle rhumerus
    rhumerus rradius
    rradius rwrist
    rwrist rhand rthumb
    rhand rfingers
  end

#!OML:ASF H:\Terrain\Walking\May29\JustinRory\rory.ASF
:FULLY-SPECIFIED
:DEGREES
1
root 2.76992 14.3984 20.4337 176.195 -1.78021 179.599
lowerback 36.89 -3.4484 -18.1404
upperback 6.5799 -14.88 -3.69389
thorax -7.58711 -7.89842 10.5465
lowerneck -7.27326 -2.61539 -1.27849
upperneck 24.9881 -3.33734 4.404
head 9.11008 -0.801731 1.46217
rclavicle -1.81292e-013 5.40694e-014
rhumerus -68.5896 -20.0052 -30.5937
rradius 68.8334
rwrist -5.43237
rhand -40.5649 82.6877
rfingers 7.12502
rthumb -13.5123 53.146
lclavicle -1.81292e-013 5.40694e-014
lhumerus -21.6357 -5.17933 15.5755
lradius 57.427
lwrist 7.50599
lhand -21.7729 12.0722
lfingers 7.12502
lthumb 4.62807 42.0016
rfemur -61.3412 5.13088 35.9764
rtibia 92.079
rfoot 1.51035 1.80669
rtoes 20.9465
lfemur -54.5964 12.3971 0.0220069
ltibia 56.3212
lfoot 0.815215 -11.5201
ltoes -55.3654
2
root 2.75729 14.3347 20.1032 176.502 -1.03894 179.558
lowerback 36.0981 -3.14498 -18.6659
upperback 6.93543 -14.6176 -3.84209
thorax -6.88844 -7.92715 10.3945
lowerneck -5.42941 -2.9736 1.3444
upperneck 21.8429 -3.70807 1.4902
head 7.60167 -1.19461 0.00734785
rclavicle -1.59028e-013 8.26944e-014
rhumerus -68.233 -20.4354 -30.4819
rradius 67.6311
rwrist -5.53057
rhand -40.4757 80.4857
rfingers 7.12502
rthumb -13.4263 50.9383
lclavicle -1.59028e-013 8.26944e-014
lhumerus -21.8285 -4.27328 14.5186
lradius 55.8112
lwrist 7.36024
lhand -21.034 11.5417
lfingers 7.12502
lthumb 5.3415 41.4544
rfemur -63.2132 5.30038 35.7438
rtibia 94.9102
rfoot 5.74122 2.81217
rtoes 18.4584
lfemur -53.9231 11.6222 0.0581807
ltibia 53.9399
lfoot 3.53708 -11.1633
ltoes -54.3986
3
root 2.72942 14.2707 19.7867 176.54 -0.468319 179.328
lowerback 35.8458 -2.87969 -19.07
upperback 7.16469 -14.497 -4.01527
thorax -6.53186 -7.97027 10.292
lowerneck -6.14603 -3.05503 1.18691
upperneck 22.6385 -3.84366 1.65502
head 8.0036 -1.2284 0.0646442
rclavicle 2.38542e-014 5.725e-014
rhumerus -68.0983 -20.1184 -30.2812
rradius 66.8666
rwrist -6.3227
rhand -40.3001 78.7947
rfingers 7.12502
rthumb -13.2571 49.2363
lclavicle 2.38542e-014 5.725e-014
lhumerus -22.0823 -2.73931 13.7995
lradius 54.514
lwrist 8.46283
lhand -19.7901 12.2704
lfingers 7.12502
lthumb 6.54247 42.1494
rfemur -64.8645 4.80001 35.2119
rtibia 97.5868
rfoot 9.16278 4.11616
rtoes 16.45
lfemur -54.0757 10.3114 0.234603
ltibia 54.1363
lfoot 6.21802 -11.5989
ltoes -54.2763
4
root 2.67466 14.1388 19.472 176.242 -0.32592 179.03
lowerback 36.2149 -2.67126 -19.3353
upperback 7.44049 -14.5924 -4.21457
thorax -6.3432 -8.1144 10.2291
lowerneck -6.56402 -3.29002 0.827305
upperneck 22.7095 -4.21006 1.87287
head 8.11844 -1.41979 0.156787
rclavicle -5.40694e-014 -2.22639e-014
rhumerus -67.6562 -19.7486 -29.8644
rradius 65.6562
rwrist -7.37277
rhand -40.0547 77.2784
rfingers 7.12502
rthumb -13.0205 47.7047
lclavicle -5.40694e-014 -2.22639e-014
lhumerus -22.2378 -0.881535 13.1579
lradius 53.2332
lwrist 9.5145
lhand -18.728 13.3305
lfingers 7.12502
lthumb 7.56767 43.1751
rfemur -66.8313 3.72583 34.4729
rtibia 100.408
rfoot 10.7186 5.20566
rtoes 11.0382
lfemur -54.0596 8.43756 0.931719
ltibia 55.661
lfoot 7.77648 -12.6496
ltoes -48.326
5
root 2.64149 14.0509 19.1932 175.602 -0.275917 178.465
lowerback 37.1212 -2.23774 -19.9599
upperback 7.60518 -14.6949 -4.23578
thorax -6.34392 -8.24047 10.5788
lowerneck -9.08506 -3.93586 -2.81162
upperneck 25.9006 -5.30103 5.37429
head 9.92198 -1.75324 1.83493
rclavicle 1.27222e-014 4.45278e-014
rhumerus -66.9206 -19.1903 -29.212
rradius 64.2904
rwrist -8.51452
rhand -39.4412 74.7595
rfingers 7.12502
rthumb -12.4291 45.1491
lclavicle 1.27222e-014 4.45278e-014
lhumerus -22.4348 0.546193 12.9141
lradius 51.8516
lwrist 10.1172
lhand -18.7085 13.9578
lfingers 7.12502
lthumb 7.58656 43.8017
rfemur -68.24 2.39315 33.3833
rtibia 102.535
rfoot 9.79938 5.62742
rtoes 0.148042
lfemur -53.2232 6.90141 1.2565
ltibia 59.118
lfoot 3.79792 -7.64289
ltoes -50.5722
6
root 2.59927 13.9568 18.8949 174.64 0.259302 177.825
lowerback 38.4664 -5.04258 -23.5123
upperback 7.32245 -13.362 -4.53965
thorax -6.03191 -4.91729 10.9789
lowerneck -10.0157 -4.43275 -4.43703
upperneck 27.1921 -5.94773 6.43715
head 10.7035 -2.03477 2.42375
rclavicle 5.08889e-014 -1.65389e-013
rhumerus -66.4101 -18.021 -28.4436
rradius 63.1918
rwrist -9.87096
rhand -38.2086 71.135
rfingers 7.12502
rthumb -11.2404 41.4561
lclavicle 5.08889e-014 -1.65389e-013
lhumerus -22.6515 1.54751 13.033
lradius 50.5369
lwrist 10.6968
lhand -18.6216 14.8675
lfingers 7.12502
lthumb 7.67036 44.7084
rfemur -69.1348 1.68415 32.0599
rtibia 104.158
rfoot 7.59723 4.78659
rtoes 9.79668
lfemur -53.5883 5.80485 1.4331
ltibia 62.9803
lfoot 2.8485 -7.24463
ltoes -44.4734
7
root 2.55883 13.829 18.5898 173.902 1.05076 178.103
lowerback 38.5938 -4.88268 -23.5128
upperback 7.91343 -12.9243 -4.8435
thorax -5.57686 -4.73038 10.4738
lowerneck -9.76252 -4.58624 -4.82315
upperneck 26.3666 -6.35156 7.281
head 10.418 -2.2073 2.72873
rclavicle 1.90833e-014 1.27222e-014
rhumerus -65.9782 -17.5474 -28.3338
rradius 62.1477
rwrist -10.9754
rhand -38.2009 72.9708
rfingers 7.12502
rthumb -11.233 43.2915
lclavicle 1.90833e-014 1.27222e-014
lhumerus -22.5823 2.70288 12.2848
lradius 49.428
lwrist 11.641
lhand -18.3871 15.3566
lfingers 7.12502
lthumb 7.89675 45.1891
rfemur -70.0892 1.72338 31.7026
rtibia 105.125
rfoot 5.71506 2.88121
rtoes 12.1185
lfemur -53.9796 5.85896 2.25293
ltibia 66.5642
lfoot 1.00021 -7.67115
ltoes -43.4791
8
root 2.53994 13.7102 18.2973 173.344 1.78584 178.789
lowerback 38.9077 -4.63019 -23.3869
upperback 8.35812 -12.4311 -4.84735
thorax -5.33405 -4.51528 10.2614
lowerneck -9.51157 -4.8395 -5.47368
upperneck 25.771 -6.88766 8.38029
head 10.2575 -2.42788 3.15919
rclavicle -5.88403e-014 1.33583e-013
rhumerus -65.6993 -17.2306 -27.9449
rradius 61.287
rwrist -11.9737
rhand -37.903 72.624
rfingers 7.12502
rthumb -10.9457 42.9293
lclavicle -5.88403e-014 1.33583e-013
lhumerus -22.8493 3.45316 11.6264
lradius 48.6832
lwrist 12.5792
lhand -18.6579 14.6123
lfingers 7.12502
lthumb 7.63532 44.4545
rfemur -71.0471 1.96459 31.7561
rtibia 105.351
rfoot 4.06103 0.674267
rtoes 14.5573
lfemur -54.0895 6.38012 3.4092
ltibia 69.3109
lfoot -0.957749 -7.63183
ltoes -44.4499
9
root 2.53402 13.6104 17.9994 172.688 2.42456 179.23
lowerback 39.6992 -4.15863 -23.6297
upperback 8.55287 -11.9858 -4.78319
thorax -5.42058 -4.25693 10.3343
lowerneck -9.46749 -5.20265 -5.8023
upperneck 25.7399 -7.54024 9.12712
head 10.3389 -2.681 3.40375
rclavicle -1.41535e-013 -1.68569e-013
rhumerus -65.7246 -17.0684 -27.1222
rradius 60.3984
rwrist -12.5074
rhand -37.3709 69.7102
rfingers 7.12502
rthumb -10.4325 39.9891
lclavicle -1.41535e-013 -1.68569e-013
lhumerus -22.9926 3.88983 11.1929
lradius 47.7999
lwrist 13.1225
lhand -19.2391 13.5872
lfingers 7.12502
lthumb 7.0744 43.449
rfemur -71.7636 2.01075 31.506
rtibia 105.009
rfoot 2.21149 -1.25513
rtoes 17.4486
lfemur -53.5455 6.88572 4.38488
ltibia 71.5924
lfoot -2.70284 -7.63856
ltoes -43.588
10
root 2.54246 13.5455 17.7092 172.283 3.13398 179.516
lowerback 40.2695 -3.79833 -24.0587
upperback 8.70452 -11.7392 -4.81612
thorax -5.40222 -4.10893 10.4154
lowerneck -9.3082 -5.26788 -5.81451
upperneck 25.447 -7.75161 9.58224
head 10.2403 -2.74655 3.53888
rclavicle 1.27222e-013 -9.54166e-014
rhumerus -65.4628 -17.0574 -26.4468
rradius 59.4199
rwrist -12.5388
rhand -36.522 66.1586
rfingers 7.12502
rthumb -9.61345 36.3979
lclavicle 1.27222e-013 -9.54166e-014
lhumerus -23.1408 4.39189 10.6121
lradius 46.4785
lwrist 13.4866
lhand -19.9082 13.7979
lfingers 7.12502
lthumb 6.42845 43.6804
rfemur -72.1622 2.15601 31.0643
rtibia 103.776
rfoot 0.584327 -2.83246
rtoes 17.3753
lfemur -52.6019 7.84722 5.21551
ltibia 73.3564
lfoot -3.96753 -8.45143
ltoes -40.3594
11
root 2.53985 13.4599 17.4062 172.259 3.59436 179.305
lowerback 40.3923 -3.52409 -24.6962
upperback 8.91607 -11.544 -5.06981
thorax -5.14346 -4.00184 10.3182
lowerneck -9.17475 -5.37731 -5.3162
upperneck 25.1566 -8.05002 9.76508
head 10.1232 -2.83295 3.47638
rclavicle -4.77083e-015 1.59028e-014
rhumerus -65.5776 -17.3405 -26.116
rradius 58.7145
rwrist -13.0426
rhand -36.2593 62.5923
rfingers 7.12502
rthumb -9.36003 32.8201
lclavicle -4.77083e-015 1.59028e-014
lhumerus -22.8292 4.6786 9.88251
lradius 45.0172
lwrist 13.7381
lhand -20.452 14.8124
lfingers 7.12502
lthumb 5.90345 44.7102
rfemur -72.9864 2.13454 29.8661
rtibia 102.287
rfoot -0.666807 -3.80168
rtoes 16.7654
lfemur -52.1616 8.93201 5.3448
ltibia 75.1103
lfoot -5.18404 -9.42372
ltoes -37.2838
12
root 2.56615 13.4552 17.1415 172.596 3.52973 179.173
lowerback 40.7204 -3.53357 -25.0612
upperback 8.91854 -11.7536 -5.27632
thorax -5.14016 -4.05923 10.3063
lowerneck -9.40485 -5.60581 -4.9743
upperneck 25.5854 -8.50327 9.96311
head 10.3621 -2.95931 3.43939
rclavicle 5.88403e-014 -1.20861e-013
rhumerus -65.5324 -17.3234 -26.1576
rradius 57.9664
rwrist -14.0716
rhand -36.6023 59.7356
rfingers 7.12502
rthumb -9.691 29.9785
lclavicle 5.88403e-014 -1.20861e-013
lhumerus -22.8163 4.82972 9.12849
lradius 43.6663
lwrist 13.4976
lhand -20.5568 16.2321
lfingers 7.12502
lthumb 5.80229 46.1326
rfemur -73.7441 1.85086 28.6178
rtibia 99.9775
rfoot -1.65869 -4.15074
rtoes 16.1964
lfemur -52.0043 9.53577 5.24682
ltibia 76.3251
lfoot -6.34138 -9.95513
ltoes -35.2059
13
root 2.58987 13.4243 16.8706 173.23 3.1438 179.489
lowerback 41.2471 -3.7663 -25.1599
upperback 8.7123 -12.325 -5.04131
thorax -5.32573 -4.3216 10.807
lowerneck -9.91276 -5.68755 -5.39212
upperneck 26.4262 -8.59791 10.0799
head 10.8099 -2.98096 3.55503
rclavicle -9.54166e-015 5.08889e-014
rhumerus -64.5755 -16.922 -26.0942
rradius 56.8647
rwrist -15.0406
rhand -37.2202 57.5161
rfingers 7.12502
rthumb -10.2871 27.7876
lclavicle -9.54166e-015 5.08889e-014
lhumerus -23.4442 5.59649 8.82323
lradius 42.334
lwrist 12.6211
lhand -20.1402 18.0369
lfingers 7.12502
lthumb 6.20451 47.926
rfemur -75.0027 1.3774 27.7541
rtibia 97.4093
rfoot -2.10158 -4.09075
rtoes 14.26
lfemur -52.5009 9.9465 5.51686
ltibia 77.5398
lfoot -7.3626 -10.4204
ltoes -33.0762
14
root 2.61809 13.3759 16.5983 173.797 2.60912 179.563
lowerback 41.6201 -3.8447 -25.5303
upperback 8.60362 -12.7101 -4.69047
thorax -5.30042 -4.52859 11.4695
lowerneck -10.47 -5.89858 -5.88079
upperneck 27.336 -8.78117 9.8815
head 11.2996 -3.09006 3.55556
rclavicle 2.70347e-014 -7.63333e-014
rhumerus -63.9257 -16.7896 -25.5756
rradius 55.8018
rwrist -15.9726
rhand -37.6621 54.1561
rfingers 7.12502
rthumb -10.7134 24.4493
lclavicle 2.70347e-014 -7.63333e-014
lhumerus -23.8077 6.57958 8.95276
lradius 41.1223
lwrist 11.9606
lhand -19.7963 19.6738
lfingers 7.12502
lthumb 6.53646 49.5529
rfemur -76.1355 0.92748 26.4829
rtibia 94.5184
rfoot -1.72078 -3.89365
rtoes 15.2928
lfemur -52.9614 10.2436 5.54619
ltibia 78.6195
lfoot -8.40467 -10.9437
ltoes -31.0738
